# xmcd
#
# Track frame offsets: 
#        150
#        26812
#        55049
#        82121
#        109478
#        144990
#        171468
#        195555
#        219112
#        248119
#
# Disc length: 3702 seconds
#
# Revision: 0
# Processed by: cddbd v1.5.2PL0 Copyright (c) Steve Scherf et al.
# Submitted via: ExactAudioCopy v1.0b3
#
DISCID=8c0e740a
DTITLE=Various Artist - Hard House Vol. 1 - CD 1
DYEAR=1900
DGENRE=
TTITLE0=Kickbeat - Music (K.K. Rmx)
TTITLE1=Base 1 - My Way (Rico Bass Club Mix)
TTITLE2=Floorkiller - Dancefloorkiller (Base 1 Rmx)
TTITLE3=Basquez - Fire Power (The 4 Jays Rmx)
TTITLE4=Klubbheads - Kickin' Hard 2001 (Central Seven Rmx)
TTITLE5=DJ Scotty - Rokkin' (Original Mix)
TTITLE6=Ibiza United Vs. K.K. Project - Wait A Minute (Hands Up!) (Xtd
TTITLE6=Mix)
TTITLE7=Reactor Bass - My Name Is Bass (Rico Bass Club Mix)
TTITLE8=Jürgen Dee Vs. Axel S. - House (Dee'n's Club Mix)
TTITLE9=DJ RPM - Pussy Pussy (Rico Bass Rmx)
EXTD=
EXTT0=
EXTT1=
EXTT2=
EXTT3=
EXTT4=
EXTT5=
EXTT6=
EXTT7=
EXTT8=
EXTT9=
PLAYORDER=
